<svg width="48" height="49" viewBox="0 0 48 49" fill="none" xmlns="http://www.w3.org/2000/svg">
<circle cx="24" cy="24.5" r="24" fill="#30BBB7"/>
<path fill-rule="evenodd" clip-rule="evenodd" d="M27.9751 23.0963C29.5319 29.3902 32.6829 30.7408 32.6829 30.7408C32.6829 30.7408 27.311 29.5311 23.7598 25.0483C21.5985 22.3198 19.5231 17.1329 19.5231 17.1329L27.4827 14.9482C27.4827 14.9482 27.0699 19.4371 27.9751 23.0963ZM20.6234 33.5268C28.1459 35.307 34.9378 31.9887 34.9378 31.9887C34.9378 31.9887 30.428 33.243 23.5682 27.7901C19.5785 24.6206 16.3315 19.4177 16.3315 19.4177L9.53717 28.6281C9.53717 28.6281 16.0467 32.4402 20.6234 33.5268ZM31.9128 28.7184C31.9128 28.7184 30.8936 26.5938 32.8453 22.6775C33.98 20.4006 36.148 18.3018 36.148 18.3018L31.1415 15.7837C31.1415 15.7837 29.9374 19.3735 29.8476 21.7492C29.7021 25.654 31.9128 28.7184 31.9128 28.7184ZM35.3506 24.6781C32.9802 25.4665 32.5456 26.765 32.5456 26.765C32.5456 26.765 32.8677 24.5789 34.4934 23.0388C35.4835 22.1015 37.4178 21.133 37.4178 21.133L38.4627 24.2693C38.4627 24.2693 36.7308 24.2202 35.3506 24.6781Z" fill="white"/>
</svg>
