<svg width="48" height="49" viewBox="0 0 48 49" fill="none" xmlns="http://www.w3.org/2000/svg">
<circle cx="24" cy="24.5" r="24" fill="#30BBB7"/>
<path d="M35.1779 24.5001C35.1779 30.7133 30.1411 35.7501 23.9279 35.7501C17.7147 35.7501 12.6779 30.7133 12.6779 24.5001C12.6779 18.2869 17.7147 13.2501 23.9279 13.2501C30.1411 13.2501 35.1779 18.2869 35.1779 24.5001ZM14.8271 24.5001C14.8271 29.5263 18.9016 33.6009 23.9279 33.6009C28.9541 33.6009 33.0287 29.5263 33.0287 24.5001C33.0287 19.4738 28.9541 15.3993 23.9279 15.3993C18.9016 15.3993 14.8271 19.4738 14.8271 24.5001Z" fill="white"/>
<path d="M25.0272 23.5917C24.8435 23.8375 24.4486 24.0076 23.9912 24.0076C23.5044 24.0076 23.0886 23.8151 22.9226 23.5436C21.8722 24.0493 21.1268 25.3243 21.1268 26.8173C21.1268 27.3737 21.2304 27.8999 21.4146 28.3672H26.4404C26.6247 27.8999 26.7282 27.3737 26.7282 26.8173C26.7282 25.3696 26.0273 24.1268 25.0272 23.5917Z" fill="white"/>
<path d="M27.4588 28.3672H29.9441C30.165 27.918 30.2928 27.3867 30.2928 26.8173C30.2928 25.2036 29.2668 23.8955 28.0013 23.8955C27.5912 23.8955 27.2063 24.0328 26.8733 24.2734C27.4112 24.9123 27.7467 25.8158 27.7467 26.8173C27.7467 27.3737 27.6431 27.8999 27.4588 28.3672Z" fill="white"/>
<path d="M20.5413 28.3671H18.056C17.8351 27.9178 17.7074 27.3865 17.7074 26.8172C17.7074 25.2035 18.7333 23.8954 19.9989 23.8954C20.409 23.8954 20.7939 24.0327 21.1268 24.2733C20.5889 24.9122 20.2535 25.8156 20.2535 26.8172C20.2535 27.3736 20.357 27.8998 20.5413 28.3671Z" fill="white"/>
<path fill-rule="evenodd" clip-rule="evenodd" d="M27.4925 22.5874C28.0678 22.5874 28.5341 22.0942 28.5341 21.4857C28.5341 20.8773 28.0678 20.3841 27.4925 20.3841C26.9173 20.3841 26.4509 20.8773 26.4509 21.4857C26.4509 22.0942 26.9173 22.5874 27.4925 22.5874Z" fill="white"/>
<path fill-rule="evenodd" clip-rule="evenodd" d="M20.3628 22.5874C20.938 22.5874 21.4043 22.0942 21.4043 21.4857C21.4043 20.8773 20.938 20.3841 20.3628 20.3841C19.7875 20.3841 19.3212 20.8773 19.3212 21.4857C19.3212 22.0942 19.7875 22.5874 20.3628 22.5874Z" fill="white"/>
<path fill-rule="evenodd" clip-rule="evenodd" d="M23.9278 22.5433C24.6309 22.5433 25.2009 21.9514 25.2009 21.2213C25.2009 20.4911 24.6309 19.8993 23.9278 19.8993C23.2247 19.8993 22.6548 20.4911 22.6548 21.2213C22.6548 21.9514 23.2247 22.5433 23.9278 22.5433Z" fill="white"/>
</svg>
