<svg width="48" height="49" viewBox="0 0 48 49" fill="none" xmlns="http://www.w3.org/2000/svg">
<circle cx="24" cy="24.5" r="24" fill="#30BBB7"/>
<path d="M21.6605 15.7108C21.0392 15.7108 20.5355 16.2145 20.5355 16.8358V22.742H27.3243V16.8358C27.3243 16.2145 26.8206 15.7108 26.1993 15.7108H21.6605Z" fill="white"/>
<path fill-rule="evenodd" clip-rule="evenodd" d="M18.3399 20.2421H17.2852C16.6639 20.2421 16.1602 20.7458 16.1602 21.3671V22.5976C16.1602 22.6465 16.1633 22.6947 16.1694 22.742H15.6329C15.0116 22.742 14.5079 23.2457 14.5079 23.867V31.4256C14.5079 32.0469 15.0116 32.5506 15.6329 32.5506H32.2266C32.8479 32.5506 33.3516 32.0469 33.3516 31.4256V23.867C33.3516 23.2457 32.8479 22.742 32.2266 22.742H31.6901C31.6962 22.6947 31.6993 22.6465 31.6993 22.5976V21.3671C31.6993 20.7458 31.1956 20.2421 30.5743 20.2421H29.5196V24.9217H18.3399V20.2421ZM16.7848 27.7905C16.7848 27.2934 17.1877 26.8905 17.6848 26.8905H19.1348C19.6319 26.8905 20.0348 27.2934 20.0348 27.7905V29.1545C20.0348 29.6516 19.6319 30.0545 19.1348 30.0545H17.6848C17.1877 30.0545 16.7848 29.6516 16.7848 29.1545V27.7905ZM23.2046 26.8905C22.7075 26.8905 22.3046 27.2934 22.3046 27.7905V29.1545C22.3046 29.6516 22.7075 30.0545 23.2046 30.0545H24.6546C25.1517 30.0545 25.5546 29.6516 25.5546 29.1545V27.7905C25.5546 27.2934 25.1517 26.8905 24.6546 26.8905H23.2046ZM27.8247 27.7905C27.8247 27.2934 28.2276 26.8905 28.7247 26.8905H30.1747C30.6718 26.8905 31.0747 27.2934 31.0747 27.7905V29.1545C31.0747 29.6516 30.6718 30.0545 30.1747 30.0545H28.7247C28.2276 30.0545 27.8247 29.6516 27.8247 29.1545V27.7905Z" fill="white"/>
</svg>
