<svg width="48" height="49" viewBox="0 0 48 49" fill="none" xmlns="http://www.w3.org/2000/svg">
<circle cx="24" cy="24.5" r="24" fill="#30BBB7"/>
<path d="M15.7717 32.8882C15.7717 31.9757 16.5114 31.2359 17.424 31.2359H30.3986C31.3111 31.2359 32.0509 31.9757 32.0509 32.8882V32.8882H15.7717V32.8882Z" fill="white"/>
<path fill-rule="evenodd" clip-rule="evenodd" d="M30.8218 23.9762H17.1784V29.9879H21.9175V27.8481C21.9175 26.6979 22.8499 25.7655 24.0001 25.7655C25.1502 25.7655 26.0826 26.6979 26.0826 27.8481V29.9879H30.8218V23.9762Z" fill="white"/>
<path fill-rule="evenodd" clip-rule="evenodd" d="M27.1807 20.9978C27.6793 21.7522 28.535 22.2498 29.5069 22.2498C31.0457 22.2498 32.2932 21.0024 32.2932 19.4636V19.3659C32.2932 19.2597 32.2071 19.1737 32.1009 19.1737H31.6796L27.6159 15.4241C27.512 15.3282 27.3758 15.275 27.2345 15.275H26.3685L27.1871 20.7969C27.1973 20.8658 27.1946 20.9336 27.1807 20.9978ZM25.2539 15.275H22.515L21.7243 20.7965C21.7117 20.8846 21.6793 20.9649 21.6323 21.0338C22.1341 21.768 22.978 22.2498 23.9344 22.2498C24.8342 22.2498 25.6344 21.8233 26.1438 21.1614C26.1092 21.1016 26.085 21.0344 26.0743 20.9619L25.2549 15.4342C25.2468 15.3801 25.2468 15.3266 25.2539 15.275ZM20.6107 20.6371C20.5861 20.8087 20.6418 20.9733 20.7492 21.0929C20.2428 21.793 19.421 22.2498 18.4932 22.2498C16.9544 22.2498 15.7069 20.9931 15.7069 19.4543C15.7069 19.2998 15.8321 19.1737 15.9866 19.1737H16.3227L20.412 15.4229C20.5157 15.3278 20.6514 15.275 20.7922 15.275H21.3786L20.6107 20.6371Z" fill="white"/>
</svg>
